<svg width="91" height="79" viewBox="0 0 91 79" fill="none" xmlns="http://www.w3.org/2000/svg">
<path d="M87.6064 27.8171C84.4693 22.8699 80.1771 20.1701 73.5552 18.816C73.4949 13.8725 71.9552 10.9275 70.4176 8.43199C65.1632 -0.104547 53.6133 -1.95201 46.0208 2.63305L29.8373 12.6757L10.4693 24.6011L10.3669 24.4325L10.4448 24.5637C2.11999 29.6859 -3.41281 39.7856 3.02079 50.3749C7.86239 58.2384 19.3851 62.7104 28.8496 56.7968C31.6011 55.1019 35.1984 54.7856 37.6219 58.7168C39.7077 61.9499 38.1227 65.545 34.6843 67.3013L41.7328 78.5995C50.7259 73.2432 55.4645 62.008 49.2523 51.9163C43.1163 41.9536 30.5904 40.9893 23.0293 45.7371C20.2784 47.4341 15.9515 46.5712 14.2181 43.7547C11.9835 39.9776 13.8213 36.9456 16.8347 35.0896L16.8203 35.0651L36.032 23.2325L51.5168 13.9173C59.0032 9.30559 65.7024 19.3051 57.8544 24.0501L53.9525 26.5419L60.3435 36.9157L67.2757 32.7355C74.1675 28.4912 80.7493 38.2906 73.3712 42.9242L55.1845 54.1242L61.8949 65.0192L82.1285 52.7413C87.5792 49.3845 93.7755 37.6917 87.6064 27.8171Z" fill="#E95E30"/>
</svg>
