<svg width="339" height="80" viewBox="0 0 339 80" fill="none" xmlns="http://www.w3.org/2000/svg">
<path d="M119.774 46.5531C119.774 47.9387 119.417 49.1835 118.703 50.2875C117.99 51.3915 116.946 52.256 115.571 52.8811C114.196 53.5061 112.565 53.8187 110.68 53.8187C108.42 53.8187 106.555 53.3915 105.086 52.5376C104.045 51.9232 103.198 51.1035 102.547 50.0773C101.896 49.0512 101.571 48.0533 101.571 47.0848C101.571 46.5221 101.766 46.0411 102.157 45.64C102.548 45.2389 103.045 45.0379 103.649 45.0379C104.139 45.0379 104.553 45.1941 104.891 45.5067C105.229 45.8192 105.518 46.2827 105.758 46.8971C106.05 47.6261 106.365 48.2357 106.703 48.7253C107.042 49.2149 107.518 49.6192 108.133 49.9365C108.748 50.2544 109.555 50.4139 110.555 50.4139C111.93 50.4139 113.047 50.0928 113.907 49.4523C114.766 48.8117 115.196 48.0128 115.196 47.0544C115.196 46.2939 114.964 45.6763 114.5 45.2021C114.037 44.728 113.438 44.3669 112.703 44.1168C111.969 43.8656 110.987 43.6 109.758 43.32C108.113 42.9333 106.735 42.4837 105.626 41.968C104.516 41.4523 103.636 40.7493 102.985 39.8587C102.334 38.968 102.009 37.8613 102.009 36.5381C102.009 35.2779 102.353 34.1579 103.04 33.1787C103.727 32.1995 104.722 31.4469 106.025 30.9211C107.326 30.3952 108.858 30.1323 110.618 30.1323C112.025 30.1323 113.241 30.3067 114.267 30.6555C115.292 31.0043 116.144 31.4677 116.821 32.0459C117.499 32.624 117.993 33.2309 118.306 33.8661C118.618 34.5013 118.774 35.1216 118.774 35.7253C118.774 36.2773 118.579 36.7749 118.188 37.2176C117.797 37.6603 117.31 37.8816 116.727 37.8816C116.196 37.8816 115.793 37.7488 115.516 37.4832C115.24 37.2176 114.94 36.7829 114.618 36.1787C114.201 35.3141 113.701 34.6395 113.118 34.1552C112.534 33.6709 111.597 33.4288 110.306 33.4288C109.108 33.4288 108.141 33.6917 107.407 34.2176C106.673 34.7435 106.306 35.3765 106.306 36.1163C106.306 36.5744 106.43 36.9707 106.681 37.304C106.931 37.6373 107.274 37.9237 107.712 38.1632C108.15 38.4027 108.592 38.5904 109.04 38.7259C109.487 38.8613 110.228 39.0592 111.259 39.3195C112.55 39.6213 113.719 39.9547 114.766 40.3195C115.813 40.6843 116.704 41.1269 117.438 41.6469C118.173 42.168 118.746 42.8272 119.157 43.624C119.569 44.4197 119.774 45.3968 119.774 46.5531Z" fill="white"/>
<path d="M139.383 45.1472C139.383 46.4181 139.186 47.5899 138.79 48.6629C138.394 49.736 137.821 50.6576 137.071 51.4288C136.321 52.1995 135.425 52.7915 134.383 53.2016C133.342 53.6128 132.17 53.8192 130.868 53.8192C129.576 53.8192 128.414 53.6107 127.383 53.1941C126.353 52.7776 125.459 52.1819 124.704 51.4053C123.948 50.6293 123.376 49.7115 122.985 48.6555C122.594 47.5984 122.399 46.4283 122.399 45.1472C122.399 43.8555 122.597 42.6731 122.993 41.6005C123.388 40.528 123.956 39.6117 124.695 38.8512C125.435 38.0907 126.331 37.5051 127.383 37.0933C128.435 36.6821 129.596 36.4763 130.867 36.4763C132.158 36.4763 133.331 36.6848 134.383 37.1013C135.435 37.5179 136.336 38.112 137.086 38.8827C137.836 39.6533 138.406 40.5707 138.797 41.6331C139.187 42.6955 139.383 43.8656 139.383 45.1472ZM135.102 45.1472C135.102 43.4075 134.719 42.0533 133.954 41.0848C133.189 40.1163 132.159 39.6315 130.868 39.6315C130.035 39.6315 129.3 39.8475 128.665 40.28C128.03 40.712 127.54 41.3504 127.196 42.1941C126.852 43.0379 126.681 44.0224 126.681 45.1472C126.681 46.2619 126.85 47.2357 127.188 48.0693C127.526 48.9024 128.011 49.5413 128.642 49.984C129.272 50.4256 130.014 50.6475 130.868 50.6475C132.159 50.6475 133.189 50.1611 133.954 49.1872C134.719 48.2133 135.102 46.8656 135.102 45.1472Z" fill="white"/>
<path d="M158.04 48.5376C158.04 49.0677 157.881 49.6368 157.563 50.2395C157.245 50.8437 156.761 51.4197 156.11 51.9664C155.459 52.512 154.638 52.9531 153.649 53.2864C152.66 53.6197 151.545 53.7872 150.305 53.7872C147.67 53.7872 145.612 53.0187 144.133 51.4821C142.654 49.9456 141.915 47.8864 141.915 45.3029C141.915 43.5531 142.253 42.0059 142.93 40.6624C143.607 39.3179 144.586 38.2795 145.868 37.5451C147.149 36.8107 148.68 36.4437 150.461 36.4437C151.565 36.4437 152.579 36.6053 153.5 36.928C154.422 37.2507 155.203 37.6677 155.844 38.1781C156.485 38.6885 156.974 39.2331 157.313 39.8112C157.652 40.3893 157.821 40.928 157.821 41.4283C157.821 41.9387 157.631 42.3712 157.251 42.7253C156.87 43.0795 156.41 43.2565 155.868 43.2565C155.514 43.2565 155.219 43.1659 154.985 42.9835C154.751 42.8 154.487 42.5061 154.196 42.1003C153.675 41.3088 153.131 40.7147 152.563 40.3195C151.995 39.9237 151.274 39.7259 150.399 39.7259C149.139 39.7259 148.123 40.2181 147.352 41.2027C146.581 42.1872 146.196 43.5328 146.196 45.2411C146.196 46.0432 146.295 46.7808 146.493 47.4523C146.691 48.1243 146.977 48.6971 147.352 49.1712C147.727 49.6453 148.18 50.0043 148.711 50.2491C149.243 50.4939 149.826 50.616 150.461 50.616C151.316 50.616 152.047 50.4181 152.657 50.0224C153.266 49.6277 153.805 49.0224 154.274 48.2112C154.534 47.7323 154.815 47.3557 155.117 47.0864C155.419 46.8155 155.789 46.68 156.227 46.68C156.748 46.68 157.18 46.8779 157.524 47.2736C157.868 47.6677 158.04 48.0896 158.04 48.5376Z" fill="white"/>
<path d="M163.915 34.4907C163.321 34.4907 162.813 34.3083 162.391 33.944C161.97 33.5797 161.758 33.064 161.758 32.3973C161.758 31.7931 161.974 31.296 162.407 30.9051C162.839 30.5141 163.342 30.3189 163.915 30.3189C164.467 30.3189 164.956 30.496 165.383 30.8501C165.811 31.2043 166.024 31.72 166.024 32.3968C166.024 33.0528 165.815 33.5659 165.399 33.936C164.982 34.3061 164.487 34.4907 163.915 34.4907ZM166.024 38.8965V51.224C166.024 52.0795 165.821 52.7237 165.414 53.1627C165.008 53.6 164.492 53.8181 163.868 53.8181C163.243 53.8181 162.735 53.5941 162.345 53.1461C161.954 52.6981 161.758 52.0576 161.758 51.224V39.0208C161.758 38.1771 161.954 37.5419 162.345 37.1147C162.735 36.6875 163.243 36.4741 163.868 36.4741C164.492 36.4741 165.009 36.6875 165.414 37.1147C165.82 37.5419 166.024 38.1365 166.024 38.8965Z" fill="white"/>
<path d="M181.211 51.4128C180.18 52.2149 179.183 52.816 178.22 53.2171C177.257 53.6181 176.176 53.8192 174.978 53.8192C173.884 53.8192 172.923 53.6027 172.095 53.1701C171.267 52.7376 170.629 52.1525 170.181 51.4128C169.733 50.6731 169.509 49.8709 169.509 49.0064C169.509 47.8389 169.878 46.8437 170.618 46.0208C171.358 45.1979 172.373 44.6459 173.665 44.3653C173.936 44.3029 174.608 44.1621 175.68 43.9435C176.753 43.7248 177.673 43.5237 178.438 43.3413C179.204 43.1589 180.034 42.9381 180.931 42.6779C180.878 41.5531 180.652 40.7269 180.251 40.2005C179.85 39.6741 179.02 39.4117 177.759 39.4117C176.676 39.4117 175.86 39.5627 175.314 39.8651C174.767 40.1675 174.298 40.6203 173.907 41.2245C173.516 41.8288 173.241 42.2277 173.079 42.4192C172.917 42.6117 172.571 42.7088 172.04 42.7088C171.561 42.7088 171.147 42.5547 170.798 42.2485C170.449 41.9413 170.275 41.5477 170.275 41.0683C170.275 40.3184 170.54 39.5893 171.071 38.8805C171.603 38.1717 172.431 37.5888 173.556 37.1307C174.681 36.6725 176.081 36.4432 177.759 36.4432C179.635 36.4432 181.108 36.6645 182.181 37.1072C183.254 37.5499 184.012 38.2507 184.454 39.2085C184.897 40.1664 185.119 41.4379 185.119 43.0203C185.119 44.0203 185.116 44.8704 185.11 45.5669C185.105 46.2651 185.098 47.0411 185.087 47.8949C185.087 48.6971 185.22 49.5323 185.485 50.4021C185.751 51.2731 185.883 51.8325 185.883 52.0821C185.883 52.5195 185.678 52.9173 185.267 53.2768C184.855 53.6363 184.389 53.8165 183.869 53.8165C183.431 53.8165 182.999 53.6101 182.571 53.1989C182.143 52.7899 181.691 52.1936 181.211 51.4128ZM180.93 45.2405C180.305 45.4699 179.396 45.7115 178.204 45.9664C177.012 46.2219 176.186 46.4091 175.727 46.5291C175.269 46.6501 174.831 46.8832 174.414 47.232C173.998 47.5808 173.789 48.0672 173.789 48.6933C173.789 49.3392 174.034 49.888 174.524 50.3413C175.013 50.7947 175.654 51.0203 176.446 51.0203C177.29 51.0203 178.069 50.8357 178.782 50.4661C179.496 50.0965 180.019 49.6192 180.352 49.0357C180.738 48.3899 180.93 47.3275 180.93 45.848V45.2405Z" fill="white"/>
<path d="M189.446 51.2251V32.7248C189.446 31.8704 189.635 31.2251 190.015 30.7872C190.397 30.3493 190.909 30.1312 191.555 30.1312C192.201 30.1312 192.722 30.3472 193.118 30.7797C193.514 31.2123 193.711 31.8603 193.711 32.7248V51.2251C193.711 52.0896 193.511 52.7387 193.11 53.1696C192.709 53.6021 192.19 53.8187 191.555 53.8187C190.93 53.8187 190.423 53.5947 190.033 53.1467C189.642 52.6987 189.446 52.0587 189.446 51.2251Z" fill="white"/>
<path d="M216.196 53.4283H209.196C208.185 53.4283 207.465 53.2011 207.031 52.7483C206.598 52.296 206.383 51.5744 206.383 50.5845V33.3653C206.383 32.3547 206.604 31.6283 207.046 31.1856C207.489 30.7429 208.206 30.5216 209.194 30.5216H216.616C217.711 30.5216 218.658 30.5893 219.46 30.7248C220.262 30.8603 220.982 31.1205 221.616 31.5061C222.159 31.8288 222.637 32.2379 223.053 32.7328C223.47 33.2277 223.788 33.7744 224.006 34.3733C224.225 34.9723 224.334 35.6053 224.334 36.272C224.334 38.5637 223.189 40.2405 220.897 41.3035C223.908 42.2619 225.413 44.1264 225.413 46.8971C225.413 48.1781 225.085 49.3312 224.428 50.3573C223.772 51.3845 222.886 52.1419 221.772 52.6315C221.074 52.9232 220.273 53.1296 219.366 53.2491C218.46 53.368 217.404 53.4283 216.196 53.4283ZM211.024 34.0059V39.928H215.274C216.43 39.928 217.324 39.8187 217.954 39.6C218.583 39.3813 219.066 38.9648 219.399 38.3499C219.659 37.9125 219.789 37.4229 219.789 36.8811C219.789 35.7248 219.378 34.9568 218.555 34.5765C217.732 34.1963 216.477 34.0064 214.789 34.0064L211.024 34.0059ZM215.852 43.2565H211.023V49.944H216.008C219.143 49.944 220.711 48.8139 220.711 46.5536C220.711 45.3973 220.305 44.5589 219.492 44.0379C218.68 43.5168 217.467 43.2565 215.852 43.2565Z" fill="#E95E30"/>
<path d="M233.367 47.6624V51.2251C233.367 52.0896 233.164 52.7387 232.758 53.1696C232.351 53.6021 231.836 53.8187 231.211 53.8187C230.598 53.8187 230.091 53.6 229.695 53.1627C229.3 52.7253 229.102 52.0795 229.102 51.2251V39.3499C229.102 37.4331 229.795 36.4747 231.18 36.4747C231.888 36.4747 232.398 36.6987 232.711 37.1467C233.023 37.5947 233.195 38.256 233.227 39.1312C233.737 38.256 234.26 37.5947 234.796 37.1467C235.334 36.6987 236.05 36.4747 236.945 36.4747C237.84 36.4747 238.711 36.6987 239.555 37.1467C240.398 37.5947 240.82 38.1883 240.82 38.928C240.82 39.4491 240.64 39.8784 240.281 40.2171C239.921 40.5552 239.534 40.7253 239.117 40.7253C238.961 40.7253 238.582 40.6283 237.983 40.4363C237.385 40.2437 236.857 40.1472 236.398 40.1472C235.772 40.1472 235.261 40.3115 234.867 40.6389C234.471 40.9669 234.164 41.4544 233.944 42.1003C233.725 42.7461 233.575 43.5136 233.491 44.4043C233.408 45.2949 233.367 46.3803 233.367 47.6624Z" fill="#E95E30"/>
<path d="M257.899 45.1472C257.899 46.4181 257.701 47.5899 257.305 48.6629C256.91 49.736 256.338 50.6576 255.586 51.4288C254.836 52.1995 253.94 52.7915 252.899 53.2016C251.857 53.6128 250.685 53.8192 249.383 53.8192C248.091 53.8192 246.93 53.6107 245.899 53.1941C244.868 52.7776 243.975 52.1819 243.22 51.4053C242.465 50.6288 241.892 49.7115 241.501 48.6555C241.11 47.5984 240.914 46.4283 240.914 45.1472C240.914 43.8555 241.112 42.6731 241.508 41.6005C241.903 40.5285 242.471 39.6117 243.211 38.8512C243.949 38.0907 244.846 37.5051 245.898 37.0933C246.95 36.6816 248.111 36.4763 249.382 36.4763C250.674 36.4763 251.846 36.6848 252.898 37.1013C253.95 37.5179 254.851 38.112 255.601 38.8827C256.35 39.6533 256.921 40.5707 257.311 41.6331C257.702 42.6955 257.899 43.8656 257.899 45.1472ZM253.618 45.1472C253.618 43.4075 253.235 42.0533 252.47 41.0848C251.705 40.1163 250.676 39.6315 249.385 39.6315C248.551 39.6315 247.817 39.8475 247.181 40.28C246.545 40.712 246.057 41.3504 245.713 42.1941C245.368 43.0379 245.196 44.0224 245.196 45.1472C245.196 46.2619 245.365 47.2357 245.704 48.0693C246.043 48.9029 246.527 49.5413 247.157 49.984C247.788 50.4256 248.529 50.6475 249.385 50.6475C250.676 50.6475 251.705 50.1611 252.47 49.1872C253.235 48.2133 253.618 46.8656 253.618 45.1472Z" fill="#E95E30"/>
<path d="M261.493 36.8496H261.962V34.2869C261.962 33.5995 261.98 33.0603 262.017 32.6699C262.054 32.2795 262.156 31.9435 262.321 31.6619C262.487 31.3701 262.727 31.1333 263.041 30.9509C263.354 30.7685 263.701 30.6773 264.088 30.6773C264.63 30.6773 265.119 30.8805 265.557 31.2869C265.849 31.5579 266.033 31.8885 266.111 32.2789C266.189 32.6693 266.229 33.224 266.229 33.9429V36.8491H267.791C268.396 36.8491 268.856 36.9925 269.175 37.2789C269.493 37.5653 269.651 37.9328 269.651 38.3803C269.651 38.9531 269.425 39.3541 268.972 39.5835C268.519 39.8128 267.871 39.9275 267.028 39.9275H266.231V47.7712C266.231 48.4379 266.254 48.9515 266.301 49.3109C266.348 49.6704 266.473 49.9621 266.676 50.1861C266.879 50.4101 267.21 50.5227 267.668 50.5227C267.918 50.5227 268.257 50.4779 268.683 50.3893C269.11 50.3008 269.444 50.2571 269.683 50.2571C270.027 50.2571 270.337 50.3947 270.613 50.6704C270.889 50.9461 271.026 51.2869 271.026 51.6944C271.026 52.3808 270.651 52.9067 269.901 53.2725C269.151 53.6373 268.073 53.8181 266.668 53.8181C265.335 53.8181 264.324 53.5941 263.636 53.1461C262.948 52.6981 262.498 52.0784 262.285 51.2869C262.071 50.4965 261.964 49.4379 261.964 48.1163V39.928H261.401C260.787 39.928 260.318 39.7824 259.995 39.4907C259.671 39.1989 259.51 38.8293 259.51 38.3813C259.51 37.9333 259.679 37.5664 260.018 37.28C260.356 36.9931 260.847 36.8496 261.493 36.8496Z" fill="#E95E30"/>
<path d="M276.758 32.7248V39.0528C277.3 38.4277 277.829 37.9328 278.345 37.5685C278.861 37.2043 279.43 36.9307 280.055 36.7483C280.681 36.5659 281.354 36.4747 282.071 36.4747C283.154 36.4747 284.116 36.704 284.954 37.1621C285.791 37.6203 286.451 38.2869 286.93 39.1621C287.232 39.6725 287.435 40.2427 287.54 40.8731C287.645 41.5035 287.696 42.2304 287.696 43.0533V51.224C287.696 52.0795 287.501 52.7237 287.11 53.1627C286.719 53.6 286.201 53.8181 285.555 53.8181C284.149 53.8181 283.446 52.9536 283.446 51.2245V44.0213C283.446 42.6565 283.243 41.608 282.836 40.8736C282.43 40.1392 281.659 39.7723 280.524 39.7723C279.763 39.7723 279.078 39.9883 278.468 40.4208C277.859 40.8539 277.404 41.4443 277.102 42.1947C276.873 42.8299 276.758 43.9605 276.758 45.5851V51.2245C276.758 52.0683 276.567 52.712 276.187 53.1547C275.807 53.5973 275.279 53.8181 274.602 53.8181C273.194 53.8181 272.492 52.9536 272.492 51.2245V32.7248C272.492 31.8603 272.677 31.2117 273.046 30.7797C273.416 30.3477 273.935 30.1312 274.602 30.1312C275.279 30.1312 275.807 30.3499 276.187 30.7872C276.567 31.224 276.758 31.8704 276.758 32.7248Z" fill="#E95E30"/>
<path d="M303.821 46.1936H295.477C295.487 47.1621 295.682 48.0165 296.062 48.7563C296.444 49.496 296.948 50.0533 297.579 50.4283C298.21 50.8032 298.904 50.9909 299.665 50.9909C300.175 50.9909 300.641 50.9317 301.062 50.8117C301.484 50.6907 301.894 50.5045 302.29 50.2491C302.685 49.9931 303.05 49.72 303.384 49.4283C303.717 49.1365 304.149 48.7408 304.681 48.2405C304.899 48.0528 305.212 47.9595 305.618 47.9595C306.056 47.9595 306.41 48.0795 306.681 48.3189C306.952 48.5584 307.088 48.8971 307.088 49.3344C307.088 49.72 306.937 50.1696 306.634 50.6853C306.332 51.2011 305.876 51.6965 305.267 52.1696C304.658 52.6437 303.892 53.0373 302.97 53.3499C302.048 53.6624 300.988 53.8187 299.79 53.8187C297.05 53.8187 294.92 53.0373 293.401 51.4747C291.879 49.9109 291.12 47.7925 291.12 45.1152C291.12 43.8549 291.307 42.6848 291.682 41.6069C292.057 40.5291 292.604 39.6043 293.323 38.8336C294.042 38.0629 294.927 37.4715 295.979 37.0603C297.03 36.6491 298.197 36.4432 299.478 36.4432C301.145 36.4432 302.575 36.7947 303.767 37.4981C304.96 38.2016 305.853 39.1099 306.446 40.224C307.04 41.3387 307.337 42.4741 307.337 43.6304C307.337 44.7035 307.03 45.3979 306.415 45.7168C305.8 46.0357 304.936 46.1936 303.821 46.1936ZM295.477 43.7717H303.211C303.108 42.3136 302.714 41.2219 302.032 40.4981C301.35 39.7739 300.451 39.4123 299.336 39.4123C298.274 39.4123 297.402 39.7792 296.72 40.5131C296.037 41.248 295.623 42.3344 295.477 43.7717Z" fill="#E95E30"/>
<path d="M315.164 47.6624V51.2251C315.164 52.0896 314.961 52.7387 314.555 53.1696C314.148 53.6021 313.633 53.8187 313.008 53.8187C312.394 53.8187 311.888 53.6 311.492 53.1627C311.097 52.7253 310.899 52.0795 310.899 51.2251V39.3499C310.899 37.4331 311.591 36.4747 312.977 36.4747C313.685 36.4747 314.195 36.6987 314.508 37.1467C314.82 37.5947 314.992 38.256 315.023 39.1312C315.534 38.256 316.057 37.5947 316.593 37.1467C317.129 36.6987 317.846 36.4747 318.742 36.4747C319.637 36.4747 320.508 36.6987 321.351 37.1467C322.195 37.5947 322.617 38.1883 322.617 38.928C322.617 39.4491 322.437 39.8784 322.077 40.2171C321.718 40.5552 321.331 40.7253 320.914 40.7253C320.757 40.7253 320.379 40.6283 319.78 40.4363C319.181 40.2437 318.653 40.1472 318.194 40.1472C317.569 40.1472 317.058 40.3115 316.663 40.6389C316.268 40.9669 315.961 41.4544 315.741 42.1003C315.522 42.7461 315.371 43.5136 315.287 44.4043C315.204 45.2949 315.164 46.3803 315.164 47.6624Z" fill="#E95E30"/>
<path d="M337.883 48.2405C337.883 49.4176 337.598 50.4251 337.025 51.2635C336.452 52.1019 335.605 52.7387 334.485 53.1696C333.365 53.6021 332.004 53.8187 330.4 53.8187C328.869 53.8187 327.556 53.5845 326.461 53.1157C325.368 52.6469 324.562 52.0603 324.039 51.3573C323.518 50.6555 323.258 49.9488 323.258 49.2405C323.258 48.7717 323.425 48.3707 323.759 48.0373C324.092 47.704 324.514 47.5371 325.025 47.5371C325.473 47.5371 325.815 47.6453 326.056 47.864C326.295 48.0827 326.525 48.3899 326.743 48.7867C327.181 49.5472 327.704 50.1147 328.313 50.4885C328.923 50.8635 329.753 51.0523 330.806 51.0523C331.66 51.0523 332.36 50.8619 332.907 50.4816C333.453 50.1013 333.726 49.6672 333.726 49.1776C333.726 48.4277 333.443 47.8805 332.875 47.5371C332.307 47.1931 331.372 46.8651 330.07 46.5525C328.601 46.1877 327.406 45.8059 326.483 45.4048C325.561 45.0027 324.825 44.4747 324.273 43.8181C323.72 43.1621 323.444 42.3547 323.444 41.3963C323.444 40.5419 323.7 39.7349 324.21 38.9739C324.721 38.2133 325.473 37.6075 326.467 37.1536C327.462 36.6997 328.662 36.4741 330.069 36.4741C331.172 36.4741 332.165 36.5888 333.045 36.8181C333.925 37.0475 334.66 37.3547 335.249 37.7403C335.837 38.1259 336.285 38.5525 336.593 39.0213C336.901 39.4901 337.054 39.9483 337.054 40.3963C337.054 40.8853 336.889 41.2864 336.561 41.5989C336.233 41.9115 335.767 42.0688 335.163 42.0688C334.726 42.0688 334.353 41.944 334.045 41.6939C333.738 41.4427 333.387 41.0688 332.99 40.5691C332.668 40.1525 332.288 39.8192 331.849 39.5691C331.412 39.3189 330.818 39.1941 330.068 39.1941C329.297 39.1941 328.657 39.3584 328.146 39.6864C327.634 40.0144 327.38 40.4229 327.38 40.9131C327.38 41.3611 327.567 41.7275 327.942 42.0139C328.317 42.3003 328.822 42.5376 329.458 42.7253C330.094 42.9131 330.969 43.1419 332.083 43.4128C333.406 43.7355 334.488 44.1211 335.325 44.5691C336.163 45.0171 336.8 45.5451 337.231 46.1547C337.666 46.7659 337.883 47.4592 337.883 48.2405Z" fill="#E95E30"/>
<path d="M88.6064 28.8171C85.4693 23.8699 81.1771 21.1701 74.5552 19.816C74.4949 14.8725 72.9552 11.9275 71.4176 9.43199C66.1632 0.895453 54.6133 -0.952014 47.0208 3.63305L30.8373 13.6757L11.4693 25.6011L11.3669 25.4325L11.4448 25.5637C3.12 30.6859 -2.4128 40.7856 4.0208 51.3749C8.8624 59.2384 20.3851 63.7104 29.8496 57.7968C32.6011 56.1019 36.1984 55.7856 38.6219 59.7168C40.7077 62.9499 39.1227 66.545 35.6843 68.3013L42.7328 79.5995C51.7259 74.2432 56.4645 63.008 50.2523 52.9163C44.1163 42.9536 31.5904 41.9893 24.0293 46.7371C21.2784 48.4341 16.9515 47.5712 15.2181 44.7547C12.9835 40.9776 14.8213 37.9456 17.8347 36.0896L17.8203 36.0651L37.032 24.2325L52.5168 14.9173C60.0032 10.3056 66.7024 20.3051 58.8544 25.0501L54.9525 27.5419L61.3435 37.9157L68.2757 33.7355C75.1675 29.4912 81.7493 39.2906 74.3712 43.9242L56.1845 55.1242L62.8949 66.0192L83.1285 53.7413C88.5792 50.3845 94.7755 38.6917 88.6064 28.8171Z" fill="#E95E30"/>
</svg>
